<svg xmlns="http://www.w3.org/2000/svg" viewBox="0 0 64 64" width="64" height="64" role="img" aria-label="CSV file">
  <path d="M14 6h26l12 12v40a2 2 0 0 1-2 2H14a2 2 0 0 1-2-2V8a2 2 0 0 1 2-2z" fill="#e2e8f0" stroke="#94a3b8" stroke-width="2"/>
  <path d="M40 6l12 12H42a2 2 0 0 1-2-2z" fill="#94a3b8"/>
  <g fill="none" stroke="#16a34a" stroke-width="2">
    <rect x="18" y="30" width="28" height="22" rx="2"/>
    <line x1="18" y1="38" x2="46" y2="38"/>
    <line x1="18" y1="45" x2="46" y2="45"/>
    <line x1="28" y1="30" x2="28" y2="52"/>
    <line x1="37" y1="30" x2="37" y2="52"/>
  </g>
</svg>
